<svg width="16" height="16" viewBox="0 0 16 16" fill="none" xmlns="http://www.w3.org/2000/svg">
<rect width="16" height="16" rx="4" fill="#109CF1"/>
<path d="M5.70717 9.776C7.61517 8.414 8.56917 7.331 8.56917 6.527C8.56917 6.035 8.35617 5.789 7.93017 5.789C7.69017 5.789 7.51317 5.873 7.39917 6.041C7.29117 6.209 7.23117 6.47 7.21917 6.824H5.71617C5.75217 6.05 5.98617 5.468 6.41817 5.078C6.85017 4.688 7.39617 4.493 8.05617 4.493C8.74617 4.493 9.26517 4.667 9.61317 5.015C9.96717 5.363 10.1442 5.816 10.1442 6.374C10.1442 6.992 9.90717 7.598 9.43317 8.192C8.95917 8.78 8.39217 9.278 7.73217 9.686H10.2432V10.928H5.70717V9.776Z" fill="white"/>
</svg>
